<svg xmlns="http://www.w3.org/2000/svg" viewBox="0 0 93.128 36.405">
  <defs>
    <style>
      .cls-1, .cls-2 {
        fill: #f2f2f2;
      }

      .cls-1, .cls-3, .cls-4 {
        stroke: #f2f2f2;
      }

      .cls-2 {
        fill-rule: evenodd;
      }

      .cls-3, .cls-4 {
        fill: none;
      }

      .cls-3 {
        stroke-width: 2px;
      }

      .cls-4 {
        stroke-width: 4px;
      }
    </style>
  </defs>
  <g id="wayup_logo_big" transform="translate(-0.372)">
    <path id="Path_1" data-name="Path 1" class="cls-1" d="M4.368,0H0L4.294,18.655H8.365L11.4,7.181h.148l3.109,11.475H18.8L23.1,0H18.581L16.36,12.141,13.1,0H9.846L6.663,12.141Z" transform="translate(1 6.774)"/>
    <path id="Path_2" data-name="Path 2" class="cls-2" d="M16.731,18.655h-4.59l-1.036-3.7H5.626l-1.184,3.7H0L6.07,0h4.516ZM8.291,5.922h.148L10.068,11.7H6.515Z" transform="translate(23.801 6.774)"/>
    <path id="Path_3" data-name="Path 3" class="cls-1" d="M10.364,18.655H6.218V12.141L0,0H4.59l3.7,8.143h.148L12.141,0h4.59L10.364,12.141Z" transform="translate(37.867 6.774)"/>
    <path id="Path_4" data-name="Path 4" class="cls-3" d="M.148.148.1.191A.357.357,0,0,0,0,.444v29.55a.505.505,0,0,0,.506.505h6.6c.222,0,.454.4.518.962l.074.962c.024.395.04.62.074,1.036s-.01.548.222.74a.693.693,0,0,0,.888,0s5.108-3.7,5.626-3.7H33.4a.506.506,0,0,0,.357-.148l.043-.043a.357.357,0,0,0,.1-.253V.444a.357.357,0,0,0-.1-.253L33.757.148,33.735.126a.429.429,0,0,0-.3-.126H.444A.357.357,0,0,0,.191.1Z" transform="translate(58.595 1)"/>
    <path id="Path_5" data-name="Path 5" class="cls-4" d="M.066,0s-.148,9.328,0,9.55m0,0a3.372,3.372,0,0,0,.074.345M.066,9.55l.074.345M8.727,0s.074,9.106,0,9.55a1.429,1.429,0,0,1-.067.345,4.154,4.154,0,0,1-4.227,3.357A4.259,4.259,0,0,1,.14,9.895" transform="translate(65.192 9.439)"/>
    <path id="Path_6" data-name="Path 6" class="cls-4" d="M0,13.1v-6m0,0V0H4.294A3.623,3.623,0,0,1,5.453.173,3.21,3.21,0,0,1,7.862,2.548,3.359,3.359,0,0,1,8,3.54H8a3.381,3.381,0,0,1-.146,1.042A3.156,3.156,0,0,1,5.632,6.877a4.517,4.517,0,0,1-1.527.229Z" transform="translate(77.99 9.661)"/>
  </g>
</svg>
